<svg xmlns="http://www.w3.org/2000/svg" width="152" height="46"><path d="M129.661 13.6a2.113 2.113 0 00-2.157 2.069v6.944a5.022 5.022 0 01-10.038 0V15.68a2.112 2.112 0 00-2.148-2.077h-.009a2.113 2.113 0 00-2.158 2.069v6.944a9.345 9.345 0 0018.667 0V15.68a2.113 2.113 0 00-2.148-2.08h-.01M82.5 27.472a4.858 4.858 0 115.018-4.856 4.94 4.94 0 01-5.018 4.856m0-13.87a9.018 9.018 0 109.333 9.013A9.192 9.192 0 0082.5 13.6m60.176 13.87a4.858 4.858 0 115.018-4.856 4.941 4.941 0 01-5.018 4.856m0-13.87a9.653 9.653 0 00-4.667 1.214l-.352.21v-8.59a2.159 2.159 0 00-4.315 0v16.2a9.337 9.337 0 109.6-9.033h-.261m-80.039 13.87a4.858 4.858 0 115.018-4.856 4.94 4.94 0 01-5.018 4.856m7.175-13.87a2.183 2.183 0 00-1.969 1.24l-.117.233-.234-.14a9.689 9.689 0 00-4.878-1.331 9.017 9.017 0 10-.6 18.025q.3.01.6 0a9.653 9.653 0 004.667-1.214l.352-.21v1.63a4.942 4.942 0 01-5.019 4.856 5.013 5.013 0 01-4.666-3.035l-.07-.21a2.135 2.135 0 00-2.017-1.378 2.659 2.659 0 00-.728.117 2.06 2.06 0 00-1.337 2.592l.024.092.024.047a9.333 9.333 0 008.747 5.93 9.192 9.192 0 009.333-9.013V15.68a2.047 2.047 0 00-2.018-2.077h-.092m32.666 0a9.653 9.653 0 00-4.667 1.214l-.351.21V6.434a2.16 2.16 0 00-4.316 0v23.14a2.114 2.114 0 002.149 2.077h.009a2.115 2.115 0 002.158-2.068v-6.944a5.021 5.021 0 0110.037 0v6.936a2.114 2.114 0 002.149 2.077h.009a2.113 2.113 0 002.157-2.068v-6.945a9.2 9.2 0 00-9.334-9.036m-79.36 32.41A22.967 22.967 0 016.779 6.762a7.254 7.254 0 0110.225 0 7.177 7.177 0 010 10.18 8.559 8.559 0 000 12.142 8.65 8.65 0 0012.195 0 8.557 8.557 0 001.229-10.605l-5.934 5.908a1.963 1.963 0 01-2.767-.071 1.944 1.944 0 010-2.684l7.475-7.442a2.035 2.035 0 012.767 0 12.475 12.475 0 010 17.652 12.608 12.608 0 01-17.729 0 12.475 12.475 0 010-17.652 3.3 3.3 0 00.99-2.341 3.265 3.265 0 00-.986-2.335 3.408 3.408 0 00-4.714 0 19.05 19.05 0 00.014 27.024 19.253 19.253 0 0027.143-.013A19.109 19.109 0 0023.1 3.914a1.938 1.938 0 01-1.946-1.931v-.006A1.977 1.977 0 0123.121.015a23 23 0 11.002 45.998z" fill="#32325d" fill-rule="evenodd"/></svg>